<?xml version="1.0" encoding="UTF-8" standalone="no"?>
<svg
   height="48"
   width="48"
   version="1.1"
   id="svg4"
   sodipodi:docname="file_upload_FILL0_wght400_GRAD0_opsz48_rounded.svg"
   inkscape:export-filename="/home/nessa/Documents/Programming/Godot/Projects/Repos/kofi-supporters-scroll/assets/icons/file_upload_FILL0_wght400_GRAD0_opsz48_rounded.png"
   inkscape:export-xdpi="3072"
   inkscape:export-ydpi="3072"
   inkscape:version="1.1.2 (0a00cf5339, 2022-02-04)"
   xmlns:inkscape="http://www.inkscape.org/namespaces/inkscape"
   xmlns:sodipodi="http://sodipodi.sourceforge.net/DTD/sodipodi-0.dtd"
   xmlns="http://www.w3.org/2000/svg"
   xmlns:svg="http://www.w3.org/2000/svg">
  <defs
     id="defs8" />
  <sodipodi:namedview
     id="namedview6"
     pagecolor="#505050"
     bordercolor="#ffffff"
     borderopacity="1"
     inkscape:pageshadow="0"
     inkscape:pageopacity="0"
     inkscape:pagecheckerboard="1"
     showgrid="false"
     inkscape:zoom="13.25"
     inkscape:cx="24.037736"
     inkscape:cy="24"
     inkscape:window-width="1920"
     inkscape:window-height="1032"
     inkscape:window-x="1920"
     inkscape:window-y="24"
     inkscape:window-maximized="1"
     inkscape:current-layer="svg4" />
  <path
     d="M24 32.35q-.65 0-1.075-.425-.425-.425-.425-1.075V13.8l-4.95 4.95q-.45.45-1.05.425-.6-.025-1.05-.475-.45-.45-.45-1.075t.45-1.075l7.5-7.5q.25-.25.5-.35.25-.1.55-.1.3 0 .55.1.25.1.5.35l7.55 7.55q.45.45.45 1.05 0 .6-.45 1.05-.45.45-1.075.45t-1.075-.45l-4.95-4.9v17.05q0 .65-.425 1.075-.425.425-1.075.425ZM11 40q-1.2 0-2.1-.9Q8 38.2 8 37v-5.65q0-.65.425-1.075.425-.425 1.075-.425.65 0 1.075.425Q11 30.7 11 31.35V37h26v-5.65q0-.65.425-1.075.425-.425 1.075-.425.65 0 1.075.425Q40 30.7 40 31.35V37q0 1.2-.9 2.1-.9.9-2.1.9Z"
     id="path2"
     style="fill:#ffffff;fill-opacity:0.98055083" />
</svg>
