<?xml version="1.0" encoding="UTF-8" standalone="no"?>
<svg
   height="48"
   width="48"
   version="1.1"
   id="svg827"
   sodipodi:docname="restart_alt_FILL0_wght400_GRAD0_opsz48.svg"
   inkscape:version="1.1.2 (0a00cf5339, 2022-02-04)"
   xmlns:inkscape="http://www.inkscape.org/namespaces/inkscape"
   xmlns:sodipodi="http://sodipodi.sourceforge.net/DTD/sodipodi-0.dtd"
   xmlns="http://www.w3.org/2000/svg"
   xmlns:svg="http://www.w3.org/2000/svg">
  <defs
     id="defs831" />
  <sodipodi:namedview
     id="namedview829"
     pagecolor="#505050"
     bordercolor="#ffffff"
     borderopacity="1"
     inkscape:pageshadow="0"
     inkscape:pageopacity="0"
     inkscape:pagecheckerboard="1"
     showgrid="false"
     inkscape:zoom="13.25"
     inkscape:cx="24.037736"
     inkscape:cy="24"
     inkscape:window-width="1920"
     inkscape:window-height="1032"
     inkscape:window-x="1920"
     inkscape:window-y="24"
     inkscape:window-maximized="1"
     inkscape:current-layer="svg827" />
  <path
     d="M22.55 41.9q-6.15-.5-10.35-5.05Q8 32.3 8 26.05q0-3.85 1.775-7.25t4.975-5.55l2.15 2.15q-2.8 1.65-4.35 4.525Q11 22.8 11 26.05q0 5 3.3 8.65 3.3 3.65 8.25 4.2Zm3 0v-3q5-.6 8.25-4.225 3.25-3.625 3.25-8.625 0-5.45-3.775-9.225Q29.5 13.05 24.05 13.05h-1l3 3-2.15 2.15-6.65-6.65L23.9 4.9l2.15 2.15-3 3h1q6.7 0 11.35 4.675 4.65 4.675 4.65 11.325 0 6.25-4.175 10.8Q31.7 41.4 25.55 41.9Z"
     id="path825"
     style="fill:#ffffff;fill-opacity:1" />
</svg>
