<?xml version="1.0" encoding="UTF-8" standalone="no"?>
<svg
   height="48"
   width="48"
   version="1.1"
   id="svg4"
   sodipodi:docname="settings_FILL0_wght400_GRAD0_opsz48.svg"
   inkscape:version="1.1.2 (0a00cf5339, 2022-02-04)"
   xmlns:inkscape="http://www.inkscape.org/namespaces/inkscape"
   xmlns:sodipodi="http://sodipodi.sourceforge.net/DTD/sodipodi-0.dtd"
   xmlns="http://www.w3.org/2000/svg"
   xmlns:svg="http://www.w3.org/2000/svg">
  <defs
     id="defs8" />
  <sodipodi:namedview
     id="namedview6"
     pagecolor="#505050"
     bordercolor="#ffffff"
     borderopacity="1"
     inkscape:pageshadow="0"
     inkscape:pageopacity="0"
     inkscape:pagecheckerboard="1"
     showgrid="false"
     inkscape:zoom="13.25"
     inkscape:cx="24.037736"
     inkscape:cy="24"
     inkscape:window-width="1920"
     inkscape:window-height="1032"
     inkscape:window-x="1920"
     inkscape:window-y="24"
     inkscape:window-maximized="1"
     inkscape:current-layer="svg4" />
  <path
     d="m19.4 44-1-6.3q-.95-.35-2-.95t-1.85-1.25l-5.9 2.7L4 30l5.4-3.95q-.1-.45-.125-1.025Q9.25 24.45 9.25 24q0-.45.025-1.025T9.4 21.95L4 18l4.65-8.2 5.9 2.7q.8-.65 1.85-1.25t2-.9l1-6.35h9.2l1 6.3q.95.35 2.025.925Q32.7 11.8 33.45 12.5l5.9-2.7L44 18l-5.4 3.85q.1.5.125 1.075.025.575.025 1.075t-.025 1.05q-.025.55-.125 1.05L44 30l-4.65 8.2-5.9-2.7q-.8.65-1.825 1.275-1.025.625-2.025.925l-1 6.3ZM24 30.5q2.7 0 4.6-1.9 1.9-1.9 1.9-4.6 0-2.7-1.9-4.6-1.9-1.9-4.6-1.9-2.7 0-4.6 1.9-1.9 1.9-1.9 4.6 0 2.7 1.9 4.6 1.9 1.9 4.6 1.9Zm0-3q-1.45 0-2.475-1.025Q20.5 25.45 20.5 24q0-1.45 1.025-2.475Q22.55 20.5 24 20.5q1.45 0 2.475 1.025Q27.5 22.55 27.5 24q0 1.45-1.025 2.475Q25.45 27.5 24 27.5Zm0-3.5Zm-2.2 17h4.4l.7-5.6q1.65-.4 3.125-1.25T32.7 32.1l5.3 2.3 2-3.6-4.7-3.45q.2-.85.325-1.675.125-.825.125-1.675 0-.85-.1-1.675-.1-.825-.35-1.675L40 17.2l-2-3.6-5.3 2.3q-1.15-1.3-2.6-2.175-1.45-.875-3.2-1.125L26.2 7h-4.4l-.7 5.6q-1.7.35-3.175 1.2-1.475.85-2.625 2.1L10 13.6l-2 3.6 4.7 3.45q-.2.85-.325 1.675-.125.825-.125 1.675 0 .85.125 1.675.125.825.325 1.675L8 30.8l2 3.6 5.3-2.3q1.2 1.2 2.675 2.05Q19.45 35 21.1 35.4Z"
     id="path2"
     style="fill:#ffffff;fill-opacity:1" />
</svg>
